<svg width="28" height="28" viewBox="0 0 28 28" fill="none" xmlns="http://www.w3.org/2000/svg">
<path d="M21.1084 25.4548C20.9092 25.4548 20.7135 25.4025 20.5409 25.3029L14.2988 21.7031L8.05665 25.3029C7.88408 25.4024 7.68838 25.4547 7.48919 25.4546C7.29001 25.4545 7.09435 25.4021 6.92186 25.3025C6.74937 25.2029 6.60612 25.0596 6.50649 24.8871C6.40686 24.7147 6.35436 24.519 6.35425 24.3198V6.1609C6.35523 5.2582 6.71427 4.39274 7.35258 3.75443C7.99089 3.11612 8.85634 2.75709 9.75905 2.7561H18.8385C19.7412 2.75709 20.6067 3.11612 21.245 3.75443C21.8833 4.39274 22.2423 5.2582 22.2433 6.1609V24.3198C22.2431 24.6208 22.1235 24.9093 21.9107 25.1221C21.6979 25.3349 21.4093 25.4545 21.1084 25.4548Z" fill="#275C45"/>
</svg>
